{"title":"March Of The Dinosaurs *2011* [DVDRip.XviD-miguel] [Lektor PL]","uid":6606710,"size":727441085,"categoryP":"video","categoryS":"movies","magnet":"?xt=urn:btih:04f36cece1cbbe5b99a573de4f5a6100cce868b3&amp;dn=March+Of+The+Dinosaurs+%2A2011%2A+%5BDVDRip.XviD-miguel%5D+%5BLektor+PL%5D&amp;tr=udp%3A%2F%2Ftracker.openbittorrent.com%3A80&amp;tr=udp%3A%2F%2Fopen.demonii.com%3A1337&amp;tr=udp%3A%2F%2Ftracker.coppersurfer.tk%3A6969&amp;tr=udp%3A%2F%2Fexodus.desync.com%3A6969","seeders":2,"leechers":0,"uploader":"miguel1983","files":-1,"time":1313425380,"description":" &lt;a href=&quot;http://img829.imageshack.us/img829/3856/marchofthedinosaurs2011.jpg&quot; rel=&quot;nofollow&quot; target=&quot;_NEW&quot;&gt;http://img829.imageshack.us/img829/3856/marchofthedinosaurs2011.jpg&lt;/a&gt;\n\nCountry.......: United Kingdom\nGenre.........: Documentary, Animation, Drama, Fantasy, Adventure\nDate release..: 23.04.2011 [World]\nDirector......: Matthew Thompson\nWriters.......: Jasper James, Matthew Thompson\nDuration......: 85 min.\nMore..........: http://www.imdb.com/title/tt1737591\nTrailer.......:\n\nPilot :\nAttempt to reconstruct dinosaur migration to the south that took place tens of millions of years ago. The huge reptiles which inhabited the overgrown jungle of the North Pole each year, with winter coming in transmitting the warmer regions. Document with spectacular shots shows the dinosaurs overcoming the difficult journey of about 1000 miles. The road led through dangerous areas of volcanic and landslide, the animals have to face snow storms, wichurom and attacks by predators.\n\nCats :\nStephen Fry   \t ...  \tNarrator \n\nData Technical :\n!!! SAMPLE !!!\nAudio.....: Lector Polish\nSubtitles.: None\nFormat                           : AVI\nFormat/Info                      : Audio Video Interleave\nFile size                        : 687 MiB\nDuration                         : 1h 24mn\nOverall bit rate                 : 1 131 Kbps\nWriting application              : MEncoder SVN-r1.0~rc3+svn20090426-4.4.3\nWriting library                  : MPlayer\nVideo\nID                               : 0\nFormat                           : MPEG-4 Visual\nFormat profile                   : Advanced Simple@L5\nFormat settings, BVOP            : Yes\nFormat settings, QPel            : No\nFormat settings, GMC             : No warppoints\nFormat settings, Matrix          : Default (H.263)\nCodec ID                         : DX50\nCodec ID/Hint                    : DivX 5\nDuration                         : 1h 24mn\nBit rate                         : 998 Kbps\nWidth                            : 624 pixels\nHeight                           : 352 pixels\nDisplay aspect ratio             : 16:9\nFrame rate                       : 25.000 fps\nOriginal frame rate              : 23.976 fps\nColor space                      : YUV\nChroma subsampling               : 4:2:0\nBit depth                        : 8 bits\nScan type                        : Progressive\nBits/(Pixel*Frame)               : 0.182\nStream size                      : 606 MiB (88%)\nWriting library                  : XviD 64\nAudio\nID                               : 1\nFormat                           : MPEG Audio\nFormat version                   : Version 1\nFormat profile                   : Layer 3\nMode                             : Joint stereo\nMode extension                   : MS Stereo\nCodec ID                         : 55\nCodec ID/Hint                    : MP3\nDuration                         : 1h 23mn\nBit rate mode                    : Variable\nBit rate                         : 122 Kbps\nChannel(s)                       : 2 channels\nSampling rate                    : 48.0 KHz\nBit depth                        : 16 bits\nStream size                      : 73.3 MiB (11%)\nAlignment                        : Aligned on interleaves\nInterleave, duration             : 24 ms (0.61 video frame)\nInterleave, preload duration     : 479 ms\n\nScreen : &lt;a href=&quot;\nhttp://img713.imageshack.us/img713/3856/marchofthedinosaurs2011.jpg&quot; rel=&quot;nofollow&quot; target=&quot;_NEW&quot;&gt;\nhttp://img713.imageshack.us/img713/3856/marchofthedinosaurs2011.jpg&lt;/a&gt; &lt;a href=&quot;\nhttp://img828.imageshack.us/img828/3856/marchofthedinosaurs2011.jpg&quot; rel=&quot;nofollow&quot; target=&quot;_NEW&quot;&gt;\nhttp://img828.imageshack.us/img828/3856/marchofthedinosaurs2011.jpg&lt;/a&gt; &lt;a href=&quot;\nhttp://img196.imageshack.us/img196/3856/marchofthedinosaurs2011.jpg&quot; rel=&quot;nofollow&quot; target=&quot;_NEW&quot;&gt;\nhttp://img196.imageshack.us/img196/3856/marchofthedinosaurs2011.jpg&lt;/a&gt; &lt;a href=&quot;\nhttp://img805.imageshack.us/img805/3856/marchofthedinosaurs2011.jpg&quot; rel=&quot;nofollow&quot; target=&quot;_NEW&quot;&gt;\nhttp://img805.imageshack.us/img805/3856/marchofthedinosaurs2011.jpg&lt;/a&gt; &lt;a href=&quot;\nhttp://img18.imageshack.us/img18/3856/marchofthedinosaurs2011.jpg&quot; rel=&quot;nofollow&quot; target=&quot;_NEW&quot;&gt;\nhttp://img18.imageshack.us/img18/3856/marchofthedinosaurs2011.jpg&lt;/a&gt;","torrent":{"xt":"urn:btih:04f36cece1cbbe5b99a573de4f5a6100cce868b3","amp;dn":"March+Of+The+Dinosaurs+%2A2011%2A+%5BDVDRip.XviD-miguel%5D+%5BLektor+PL%5D","amp;tr":["udp%3A%2F%2Ftracker.openbittorrent.com%3A80","udp%3A%2F%2Fopen.demonii.com%3A1337","udp%3A%2F%2Ftracker.coppersurfer.tk%3A6969","udp%3A%2F%2Fexodus.desync.com%3A6969"],"infoHash":"04f36cece1cbbe5b99a573de4f5a6100cce868b3","infoHashBuffer":{"type":"Buffer","data":[4,243,108,236,225,203,190,91,153,165,115,222,79,90,97,0,204,232,104,179]},"announce":[],"urlList":[]}}